<svg height="477pt" viewBox="0 -28 477.98758 477" width="477pt" xmlns="http://www.w3.org/2000/svg" xmlns:xlink="http://www.w3.org/1999/xlink"><linearGradient id="a"><stop offset="0" stop-color="#006df0"/><stop offset="1" stop-color="#00e7f0"/></linearGradient><linearGradient id="b" gradientUnits="userSpaceOnUse" x1="217.673791" x2="257.585791" xlink:href="#a" y1="444.225404" y2="8.009404"/><linearGradient id="c" gradientUnits="userSpaceOnUse" x1="165.713791" x2="205.625791" xlink:href="#a" y1="439.465404" y2="3.257404"/><path d="m398.992188 91.195312h-320c-4.417969 0-8 3.578126-8 8v224c0 4.417969 3.582031 8 8 8h320c4.417968 0 8-3.582031 8-8v-224c0-4.421874-3.582032-8-8-8zm-304.453126 224 64.453126-90.242187 35.28125 49.320313-23.871094 40.921874zm94.398438 0 98.054688-168.121093 98.074218 168.121093zm202.054688-208v186.398438l-97.085938-166.398438c-1.546875-2.304687-4.140625-3.683593-6.914062-3.683593-2.773438 0-5.363282 1.378906-6.910157 3.683593l-76.976562 132-37.601563-52.585937c-1.484375-2.128906-3.914062-3.402344-6.511718-3.414063-2.582032-.003906-5.007813 1.246094-6.511719 3.351563l-65.488281 91.679687v-191.03125zm0 0" fill="url(#b)"/><path d="m477.203125 296.480469-22.210937-82.886719v-146.398438c0-13.257812-10.742188-24-24-24h-21.695313l-6.664063-24.992187c-3.484374-12.757813-16.613281-20.304687-29.390624-16.898437l-156.417969 41.890624h-169.832031c-13.253907 0-24 10.742188-24 24v27.925782l-5.214844 1.390625c-12.761719 3.488281-20.339844 16.59375-16.992188 29.394531l22.207032 82.886719v146.402343c0 13.253907 10.746093 24 24 24h21.699218l6.664063 24.988282c1.652343 6.140625 5.679687 11.371094 11.191406 14.542968 5.515625 3.167969 12.0625 4.015626 18.199219 2.355469l156.414062-41.886719h169.832032c13.257812 0 24-10.746093 24-24v-27.929687l5.21875-1.390625c12.761718-3.488281 20.339843-16.59375 16.992187-29.394531zm-99.808594-279.6875c4.242188-1.132813 8.605469 1.367187 9.773438 5.601562l5.554687 20.800781h-114.050781zm-361.144531 105c-1.113281-4.277344 1.417969-8.65625 5.679688-9.832031l1.0625-.28125v35.296874zm84.34375 283.839843c-4.242188 1.132813-8.605469-1.367187-9.777344-5.597656l-5.566406-20.839844h114.0625zm338.398438-50.4375c0 4.417969-3.582032 8-8 8h-384c-4.417969 0-8-3.582031-8-8v-288c0-4.421874 3.582031-8 8-8h384c4.417968 0 8 3.578126 8 8zm17.066406-44.800781-1.066406.3125v-35.296875l6.746093 25.183594c1.089844 4.269531-1.433593 8.625-5.679687 9.800781zm0 0" fill="url(#b)"/><path d="m190.992188 195.195312c17.675781 0 32-14.328124 32-32 0-17.675781-14.324219-32-32-32-17.671876 0-32 14.324219-32 32 0 17.671876 14.328124 32 32 32zm0-48c8.839843 0 16 7.160157 16 16 0 8.835938-7.160157 16-16 16-8.835938 0-16-7.164062-16-16 0-8.839843 7.164062-16 16-16zm0 0" fill="url(#c)"/></svg>