<!DOCTYPE svg PUBLIC "-//W3C//DTD SVG 20010904//EN" "http://www.w3.org/TR/2001/REC-SVG-20010904/DTD/svg10.dtd">
<svg version="1.0" xmlns="http://www.w3.org/2000/svg" width="591px" height="591px" viewBox="0 0 5910 5910" preserveAspectRatio="xMidYMid meet">
<g id="layer101" fill="#ffd8bd" stroke="none">
 <path d="M1744 4831 c-77 -35 -107 -151 -57 -220 37 -48 71 -66 128 -66 92 0 150 60 150 154 -1 68 -28 110 -88 135 -49 21 -83 20 -133 -3z"/>
 <path d="M2395 4380 c-76 -18 -166 -70 -222 -127 -89 -91 -99 -110 -128 -233 -23 -103 -22 -117 25 -258 20 -59 23 -52 -54 -116 -65 -54 -226 -215 -226 -227 0 -5 -9 -14 -20 -21 -11 -7 -20 -17 -20 -21 0 -5 -18 -30 -40 -56 -22 -26 -40 -53 -40 -59 0 -7 -4 -12 -8 -12 -5 0 -19 -19 -32 -42 -13 -24 -26 -45 -29 -48 -6 -5 -21 -32 -81 -146 -75 -143 -150 -379 -177 -559 -26 -176 -24 -480 4 -640 19 -110 76 -326 92 -350 4 -5 13 -28 20 -50 14 -40 91 -202 114 -240 6 -11 32 -51 57 -89 25 -38 50 -76 55 -85 66 -105 318 -364 411 -422 19 -11 34 -24 34 -29 0 -4 14 -13 30 -20 17 -7 34 -18 38 -25 4 -7 25 -22 47 -34 22 -12 63 -35 90 -52 28 -16 57 -32 65 -35 8 -4 47 -22 86 -40 40 -18 90 -39 113 -46 22 -7 41 -16 41 -19 0 -4 17 -10 38 -13 40 -8 125 -32 157 -46 11 -5 40 -11 65 -14 25 -2 110 -12 190 -21 150 -17 289 -15 460 6 47 5 107 12 135 15 27 3 54 9 60 13 5 5 48 18 94 30 46 11 89 24 95 29 6 4 29 14 51 21 22 8 68 26 102 42 34 16 67 29 72 29 5 0 16 6 23 13 7 7 33 23 58 35 76 38 135 75 143 89 4 7 13 13 20 13 7 0 30 16 51 35 22 19 43 35 46 35 4 0 20 12 36 26 32 28 95 83 116 100 12 11 122 131 167 184 60 71 71 86 71 97 0 6 4 13 8 15 30 12 187 295 218 392 10 31 21 56 26 56 4 0 8 6 8 13 0 7 14 55 30 107 52 158 96 488 85 635 -7 106 -33 281 -55 380 -22 96 -61 228 -70 235 -4 3 -10 18 -14 33 -21 87 -217 432 -270 476 -9 8 -16 19 -16 26 0 7 -11 20 -25 29 -14 9 -25 21 -25 26 0 6 -35 46 -79 90 -43 44 -76 80 -72 80 3 0 -9 9 -27 20 -18 11 -35 27 -38 35 -4 8 -11 15 -18 15 -6 0 -27 15 -47 33 -20 17 -60 48 -88 67 -29 19 -57 40 -64 46 -7 7 -33 22 -58 34 -24 13 -46 25 -49 29 -14 17 -253 124 -305 136 -16 4 -39 13 -51 20 -11 7 -72 23 -135 35 -63 13 -122 27 -132 32 -25 12 -203 27 -332 27 -135 0 -326 -16 -339 -29 -21 -21 -44 -9 -59 28 -16 39 -95 152 -107 152 -4 0 -18 10 -31 21 -13 12 -57 37 -98 56 -61 30 -86 36 -155 38 -44 2 -94 0 -111 -5z m46 -1596 c22 -27 -1 -49 -52 -49 -64 0 -64 -19 0 -25 61 -6 78 -22 67 -64 -11 -43 -41 -66 -87 -66 -51 0 -75 13 -94 50 -28 53 -11 134 32 159 29 17 119 13 134 -5z m220 -79 c50 -94 52 -125 8 -125 -15 0 -27 16 -48 62 l-29 62 -31 -62 c-32 -63 -37 -67 -65 -56 -26 10 -19 39 30 130 61 112 72 111 135 -11z m240 79 c22 -27 -1 -49 -52 -49 -64 0 -64 -19 0 -25 61 -6 78 -22 67 -64 -11 -43 -41 -66 -87 -66 -51 0 -75 13 -94 50 -28 53 -11 134 32 159 29 17 119 13 134 -5z m107 -51 c3 -68 21 -95 50 -76 12 7 18 29 22 74 5 60 6 64 30 64 24 0 25 -2 28 -78 3 -75 2 -79 -27 -107 -30 -31 -55 -37 -80 -21 -9 6 -21 5 -31 -1 -10 -6 -25 -8 -34 -5 -13 5 -16 23 -16 105 0 54 3 102 7 106 4 4 16 6 28 4 17 -3 20 -11 23 -65z m300 34 c3 -22 -1 -30 -17 -34 -17 -4 -21 -13 -21 -44 0 -35 3 -39 26 -39 23 0 25 -3 22 -32 -2 -25 -8 -34 -25 -36 -16 -2 -23 -11 -25 -35 -3 -28 -7 -32 -33 -32 -26 0 -30 4 -33 30 -2 17 -10 34 -18 38 -19 11 -19 67 1 67 11 0 15 12 15 50 0 41 5 56 25 76 35 35 79 30 83 -9z m204 4 c29 -26 33 -36 33 -80 0 -41 -5 -55 -29 -80 -67 -70 -176 -19 -176 82 0 31 7 46 34 73 45 45 92 47 138 5z m195 21 c6 -4 17 -20 22 -36 16 -40 -5 -78 -49 -92 -50 -16 -52 -36 -2 -28 32 5 40 3 46 -12 10 -26 -19 -44 -70 -44 -51 0 -74 20 -74 64 0 40 17 64 52 74 15 4 27 12 27 17 -1 6 -6 9 -12 7 -52 -15 -65 -14 -72 9 -5 16 -2 26 11 36 19 14 101 18 121 5z m121 -28 c2 -22 -2 -33 -14 -38 -30 -11 -54 3 -54 33 0 35 8 43 40 39 20 -2 26 -9 28 -34z m182 16 c16 -16 18 -25 10 -40 -15 -28 -27 -32 -50 -20 -40 21 -69 -32 -34 -61 13 -11 19 -10 37 0 18 12 23 11 39 -9 23 -29 23 -36 -4 -54 -63 -45 -158 12 -158 94 0 85 106 144 160 90z m202 -9 c29 -26 33 -36 33 -80 0 -41 -5 -55 -29 -80 -67 -70 -176 -19 -176 82 0 31 7 46 34 73 45 45 92 47 138 5z m126 -38 c5 -108 48 -106 54 2 3 56 4 60 28 60 23 0 25 -4 30 -62 9 -110 47 -112 52 -3 3 65 3 65 33 65 l30 0 3 -67 c5 -116 -40 -175 -103 -134 -23 15 -27 15 -41 1 -17 -17 -60 -20 -69 -5 -4 6 -13 5 -24 -2 -10 -6 -26 -8 -35 -5 -13 5 -16 23 -16 105 0 54 3 102 7 106 4 4 16 6 28 4 17 -3 20 -11 23 -65z m-1400 -357 c147 -41 270 -131 292 -215 17 -63 9 -496 -9 -533 -26 -52 -58 -58 -291 -58 -262 0 -266 1 -285 97 -10 51 5 124 31 150 21 21 32 23 129 23 l105 0 0 99 0 99 -37 14 c-22 7 -80 13 -133 13 -117 0 -164 -19 -249 -100 -84 -80 -115 -151 -115 -270 -1 -83 2 -96 32 -157 37 -76 88 -125 172 -166 48 -23 67 -27 146 -27 90 0 93 1 182 48 50 26 101 47 113 47 62 0 159 -109 166 -188 4 -43 2 -50 -29 -79 -83 -79 -238 -145 -374 -158 -315 -31 -637 195 -720 505 -23 87 -23 263 -1 350 10 36 36 103 59 150 54 111 186 246 295 303 118 62 196 78 343 73 69 -3 149 -12 178 -20z m1283 -5 c36 -13 93 -40 125 -60 l59 -37 86 58 c100 68 139 78 186 49 44 -27 103 -120 110 -170 7 -53 -9 -78 -94 -137 -38 -26 -71 -50 -76 -54 -4 -3 5 -40 19 -81 36 -100 45 -281 19 -394 -54 -246 -268 -459 -510 -510 -191 -40 -375 4 -542 129 -181 136 -286 405 -253 645 22 163 81 280 202 402 82 83 186 143 298 174 85 23 286 15 371 -14z"/>
 <path d="M2332 2668 c7 -21 36 -34 49 -21 6 6 8 16 5 22 -10 15 -59 14 -54 -1z"/>
 <path d="M2792 2668 c7 -21 36 -34 49 -21 6 6 8 16 5 22 -10 15 -59 14 -54 -1z"/>
 <path d="M3422 2721 c-8 -5 -12 -21 -10 -37 3 -25 7 -29 33 -29 24 0 31 5 33 23 6 39 -25 63 -56 43z"/>
 <path d="M4122 2721 c-8 -5 -12 -21 -10 -37 3 -25 7 -29 33 -29 24 0 31 5 33 23 6 39 -25 63 -56 43z"/>
 <path d="M3951 2069 c-127 -25 -234 -129 -267 -262 -47 -181 48 -375 214 -437 150 -57 336 18 407 164 52 106 54 251 4 352 -62 129 -221 210 -358 183z"/>
 </g>
<g id="layer102" fill="#fffffe" stroke="none">
 <path d="M1652 4700 c0 -19 2 -27 5 -17 2 9 2 25 0 35 -3 9 -5 1 -5 -18z"/>
 <path d="M2307 2789 c-43 -25 -60 -106 -32 -159 19 -37 43 -50 94 -50 46 0 76 23 87 66 11 42 -6 58 -67 64 -64 6 -64 25 0 25 51 0 74 22 52 49 -15 18 -105 22 -134 5z m79 -120 c3 -6 1 -16 -5 -22 -13 -13 -42 0 -49 21 -5 15 44 16 54 1z"/>
 <path d="M2526 2716 c-49 -91 -56 -120 -30 -130 28 -11 33 -7 65 56 l31 62 29 -62 c21 -46 33 -62 48 -62 44 0 42 31 -8 125 -63 122 -74 123 -135 11z"/>
 <path d="M2767 2789 c-43 -25 -60 -106 -32 -159 19 -37 43 -50 94 -50 46 0 76 23 87 66 11 42 -6 58 -67 64 -64 6 -64 25 0 25 51 0 74 22 52 49 -15 18 -105 22 -134 5z m79 -120 c3 -6 1 -16 -5 -22 -13 -13 -42 0 -49 21 -5 15 44 16 54 1z"/>
 <path d="M2957 2794 c-4 -4 -7 -52 -7 -106 0 -82 3 -100 16 -105 9 -3 24 -1 34 5 10 6 22 7 31 1 25 -16 50 -10 80 21 29 28 30 32 27 107 -3 76 -4 78 -28 78 -24 0 -25 -4 -30 -64 -4 -45 -10 -67 -22 -74 -29 -19 -47 8 -50 76 -3 54 -6 62 -23 65 -12 2 -24 0 -28 -4z"/>
 <path d="M3225 2776 c-20 -20 -25 -35 -25 -76 0 -38 -4 -50 -15 -50 -20 0 -20 -56 -1 -67 8 -4 16 -21 18 -38 3 -26 7 -30 33 -30 26 0 30 4 33 32 2 24 9 33 25 35 17 2 23 11 25 36 3 29 1 32 -22 32 -23 0 -26 4 -26 39 0 31 4 40 21 44 16 4 20 12 17 34 -4 39 -48 44 -83 9z"/>
 <path d="M3374 2766 c-27 -27 -34 -42 -34 -73 0 -67 43 -112 106 -113 32 0 46 6 70 31 24 25 29 39 29 80 0 44 -4 54 -33 80 -46 42 -93 40 -138 -5z m96 -50 c6 -8 10 -25 8 -38 -2 -18 -9 -23 -33 -23 -26 0 -30 4 -33 29 -5 41 32 62 58 32z"/>
 <path d="M3586 2787 c-13 -10 -16 -20 -11 -36 7 -23 20 -24 72 -9 6 2 11 -1 12 -7 0 -5 -12 -13 -27 -17 -35 -10 -52 -34 -52 -74 0 -44 23 -64 74 -64 51 0 80 18 70 44 -6 15 -14 17 -46 12 -50 -8 -48 12 2 28 44 14 65 52 49 92 -5 16 -16 32 -22 36 -20 13 -102 9 -121 -5z"/>
 <path d="M3767 2794 c-15 -15 -7 -63 12 -69 33 -10 52 5 49 39 -2 25 -8 32 -28 34 -14 2 -29 0 -33 -4z"/>
 <path d="M3884 2766 c-28 -28 -34 -42 -34 -76 0 -82 95 -139 158 -94 27 18 27 25 4 54 -16 20 -21 21 -39 9 -18 -10 -24 -11 -37 0 -35 29 -6 82 34 61 23 -12 35 -8 50 20 15 29 -20 60 -66 60 -28 0 -44 -8 -70 -34z"/>
 <path d="M4074 2766 c-27 -27 -34 -42 -34 -73 0 -67 43 -112 106 -113 32 0 46 6 70 31 24 25 29 39 29 80 0 44 -4 54 -33 80 -46 42 -93 40 -138 -5z m96 -50 c6 -8 10 -25 8 -38 -2 -18 -9 -23 -33 -23 -26 0 -30 4 -33 29 -5 41 32 62 58 32z"/>
 <path d="M4287 2794 c-4 -4 -7 -52 -7 -106 0 -82 3 -100 16 -105 9 -3 25 -1 35 5 11 7 20 8 24 2 9 -15 52 -12 69 5 14 14 18 14 41 -1 63 -41 108 18 103 134 l-3 67 -30 0 c-30 0 -30 0 -33 -65 -5 -109 -43 -107 -52 3 -5 58 -7 62 -30 62 -24 0 -25 -4 -28 -60 -6 -108 -49 -110 -54 -2 -3 54 -6 62 -23 65 -12 2 -24 0 -28 -4z"/>
 <path d="M2562 2381 c-121 -33 -206 -84 -308 -186 -74 -73 -98 -106 -132 -175 -23 -47 -49 -114 -59 -150 -22 -87 -22 -263 1 -350 83 -310 405 -536 720 -505 136 13 291 79 374 158 31 29 33 36 29 79 -7 79 -104 188 -166 188 -12 0 -63 -21 -113 -47 -89 -47 -92 -48 -182 -48 -79 0 -98 4 -146 27 -84 41 -135 90 -172 166 -30 61 -33 74 -32 157 0 119 31 190 115 270 85 81 132 100 249 100 53 0 111 -6 133 -13 l37 -14 0 -99 0 -99 -105 0 c-97 0 -108 -2 -129 -23 -26 -26 -41 -99 -31 -150 19 -96 23 -97 285 -97 233 0 265 6 291 58 18 37 26 470 9 533 -22 84 -145 174 -292 215 -29 8 -109 17 -178 20 -103 3 -138 1 -198 -15z"/>
 <path d="M3850 2385 c-112 -31 -216 -91 -298 -174 -184 -186 -245 -405 -186 -669 79 -353 429 -580 779 -507 182 38 369 184 453 352 58 118 76 206 69 356 -4 97 -10 137 -31 196 -14 41 -23 78 -19 81 5 4 38 28 76 54 85 59 101 84 94 137 -7 50 -66 143 -110 170 -47 29 -86 19 -186 -49 l-86 -58 -59 37 c-98 62 -172 82 -316 86 -88 2 -141 -2 -180 -12z m297 -342 c64 -29 133 -97 162 -157 50 -101 48 -246 -4 -352 -71 -146 -257 -221 -407 -164 -123 46 -212 167 -224 305 -25 278 234 479 473 368z"/>
 <path d="M1323 2335 c0 -22 2 -30 4 -17 2 12 2 30 0 40 -3 9 -5 -1 -4 -23z"/>
 <path d="M5263 2250 c0 -25 2 -35 4 -22 2 12 2 32 0 45 -2 12 -4 2 -4 -23z"/>
 <path d="M1317 2273 c-10 -9 -9 -261 1 -266 4 -3 7 57 7 134 0 76 0 139 -1 139 0 0 -4 -3 -7 -7z"/>
 <path d="M5263 2040 c0 -25 2 -35 4 -22 2 12 2 32 0 45 -2 12 -4 2 -4 -23z"/>
 <path d="M3285 170 l-90 -6 93 -2 c56 -1 92 2 92 8 0 6 -1 9 -2 8 -2 -1 -43 -5 -93 -8z"/>
 </g>

</svg>